<?xml version="1.0" encoding="UTF-8"?>
<svg version="1.1" xmlns="http://www.w3.org/2000/svg" width="577" height="599">
<path d="M0 0 C1.72570221 0.00273422 1.72570221 0.00273422 3.48626709 0.00552368 C20.00127805 0.04961388 36.13749306 0.43536773 52.4375 3.3125 C53.4776123 3.48410645 54.51772461 3.65571289 55.58935547 3.83251953 C119.84538026 14.5307031 184.42552869 44.21811992 225.4375 96.3125 C226.60732422 97.73949219 226.60732422 97.73949219 227.80078125 99.1953125 C244.84298039 120.45049548 256.20152339 144.85117259 262.4375 171.3125 C262.61539063 172.06080078 262.79328125 172.80910156 262.9765625 173.58007812 C272.29324682 214.950593 262.26774933 260.64757701 240.09765625 296.2578125 C202.91482963 353.91270678 140.9778038 390.36295841 74.82763672 405.11767578 C64.38769915 407.31741394 54.04551092 409.13383212 43.4375 410.3125 C43.7675 428.7925 44.0975 447.2725 44.4375 466.3125 C48.3975 458.3925 48.3975 458.3925 52.4375 450.3125 C73.51870716 418.55379831 102.70421666 398.12194759 140.17578125 390.2734375 C188.73096135 381.20566243 241.31541242 396.4817273 281.68945312 423.83837891 C287.75953575 428.19151872 287.75953575 428.19151872 289.4375 432.3125 C293.18405793 459.26825443 278.49731301 493.20620963 262.89428711 514.20874023 C254.81416416 524.81594146 246.08421237 534.22888506 235.4375 542.3125 C234.40109375 543.11429688 233.3646875 543.91609375 232.296875 544.7421875 C196.45921678 571.83908276 150.39451378 580.13191771 106.4375 581.3125 C104.60445313 581.374375 104.60445313 581.374375 102.734375 581.4375 C83.10161845 581.77746115 62.84145166 580.26869361 43.4375 577.3125 C43.3859375 577.88097656 43.334375 578.44945312 43.28125 579.03515625 C42.40176923 585.02162196 40.53991568 588.09567947 35.7734375 591.8125 C25.30219694 598.53650732 13.34905567 599.68826875 1.1875 599.625 C0.08865479 599.62081055 -1.01019043 599.61662109 -2.14233398 599.61230469 C-15.20937419 599.43093861 -28.75438263 597.84038545 -38.5625 588.3125 C-40.97610899 584.40078887 -41.70821524 581.84501073 -41.5625 577.3125 C-42.3059668 577.39814209 -43.04943359 577.48378418 -43.81542969 577.57202148 C-59.05470289 579.31080142 -74.2249992 580.89210254 -89.5625 581.3125 C-91.40714844 581.374375 -91.40714844 581.374375 -93.2890625 581.4375 C-148.80187353 582.38846893 -205.65933651 570.01023383 -246.89453125 530.9453125 C-271.03099696 507.12689685 -287.21347562 472.87786545 -287.875 438.6875 C-287.93107422 436.78097656 -287.93107422 436.78097656 -287.98828125 434.8359375 C-287.47994684 430.62935366 -286.57937094 429.24020234 -283.5625 426.3125 C-281.45381178 424.76297581 -279.40751014 423.36274801 -277.1875 422 C-276.56883057 421.61392578 -275.95016113 421.22785156 -275.31274414 420.83007812 C-273.40253567 419.64651887 -271.48313313 418.47904399 -269.5625 417.3125 C-267.93248047 416.30123047 -267.93248047 416.30123047 -266.26953125 415.26953125 C-226.63389818 391.54497669 -176.34148171 381.09427364 -131.04199219 391.91455078 C-119.12953403 394.92308874 -108.21741329 399.20544994 -97.5625 405.3125 C-96.96775879 405.65120117 -96.37301758 405.98990234 -95.76025391 406.33886719 C-70.87252383 420.78184309 -54.49642329 441.45566622 -42.5625 467.3125 C-42.2325 448.5025 -41.9025 429.6925 -41.5625 410.3125 C-50.1425 408.9925 -58.7225 407.6725 -67.5625 406.3125 C-72.25396428 405.35320771 -76.81955017 404.38723076 -81.4375 403.1875 C-83.15755249 402.74482788 -83.15755249 402.74482788 -84.91235352 402.29321289 C-138.93114656 387.92279346 -192.12808463 358.27320819 -226.5625 313.3125 C-227.01351074 312.72678223 -227.46452148 312.14106445 -227.92919922 311.53759766 C-256.33952101 274.23762556 -269.12341271 228.44810587 -262.87890625 181.88671875 C-258.69622805 154.40090002 -247.87998869 128.75144564 -231.5625 106.3125 C-231.15531738 105.74982422 -230.74813477 105.18714844 -230.32861328 104.60742188 C-224.28316537 96.32940277 -217.64776292 88.71088348 -210.5625 81.3125 C-209.85504639 80.56419922 -209.85504639 80.56419922 -209.13330078 79.80078125 C-201.54138188 71.80008649 -193.43181308 64.85911356 -184.5625 58.3125 C-183.90088867 57.82249512 -183.23927734 57.33249023 -182.55761719 56.82763672 C-129.55932846 17.84946267 -65.34328075 -0.21467028 0 0 Z " fill="#010100" transform="translate(287.5625,-0.31250000000000006)"/>
<path d="M0 0 C2.65208788 0.01073127 5.30349871 0.00002913 7.95556641 -0.01269531 C18.52333342 -0.02177774 28.70785404 0.6280428 39.15478516 2.26074219 C40.10740234 2.40672852 41.06001953 2.55271484 42.04150391 2.703125 C55.0762892 4.82102961 67.62915012 8.11055318 80.15478516 12.26074219 C80.83283203 12.47923828 81.51087891 12.69773437 82.20947266 12.92285156 C100.45759996 18.87731077 118.20186686 28.2135811 133.15478516 40.26074219 C133.73518555 40.72448242 134.31558594 41.18822266 134.91357422 41.66601562 C156.36501855 58.97750466 173.39593489 81.11862244 180.15478516 108.26074219 C180.49123047 109.50404297 180.49123047 109.50404297 180.83447266 110.77246094 C186.05483812 133.54898698 181.0229161 156.67131355 171.15478516 177.26074219 C170.65849609 178.31132812 170.16220703 179.36191406 169.65087891 180.44433594 C161.51746672 196.40992282 148.30955286 210.53743332 134.15478516 221.26074219 C133.62900879 221.66147949 133.10323242 222.0622168 132.56152344 222.47509766 C88.33641974 255.9346222 30.32290473 267.85442632 -24.28271484 261.54199219 C-30.19312367 260.69994908 -36.01696358 259.54543044 -41.84521484 258.26074219 C-42.75174805 258.07350586 -43.65828125 257.88626953 -44.59228516 257.69335938 C-63.70565103 253.73391793 -81.6994001 247.61341335 -98.84521484 238.26074219 C-99.46122559 237.92929199 -100.07723633 237.5978418 -100.71191406 237.25634766 C-134.1074965 219.19538141 -159.84648042 191.98504409 -170.84521484 155.26074219 C-177.76616716 128.99819992 -171.68010972 101.56505367 -158.75537109 78.38574219 C-153.13674072 69.19370885 -146.21529471 61.08289015 -138.84521484 53.26074219 C-138.29607422 52.65875 -137.74693359 52.05675781 -137.18115234 51.43652344 C-103.40856517 15.75071089 -47.59756984 -0.22836996 0 0 Z " fill="#FDF000" transform="translate(283.84521484375,74.7392578125)"/>
<path d="M0 0 C2.94770734 0.02368127 5.8945057 0.02051005 8.84228516 0.01391602 C27.86180665 0.03962473 46.67182715 1.32187086 65.32275391 5.14868164 C65.97853424 5.28001495 66.63431458 5.41134827 67.30996704 5.54666138 C77.54981271 7.59784539 87.55474134 9.99008567 97.44775391 13.33618164 C98.20991211 13.5844873 98.97207031 13.83279297 99.75732422 14.08862305 C123.8164793 21.9339997 147.84823583 32.4799147 168.44775391 47.33618164 C169.40552734 48.02067383 170.36330078 48.70516602 171.35009766 49.41040039 C205.02159736 74.05563736 233.43727961 106.97310512 243.44775391 148.33618164 C243.73263672 149.40610352 244.01751953 150.47602539 244.31103516 151.57836914 C247.97398795 165.50106175 247.65561226 179.02819085 247.44775391 193.33618164 C247.43099609 194.60848633 247.41423828 195.88079102 247.39697266 197.19165039 C245.56000698 237.76234941 218.88955724 275.56995283 190.44775391 302.33618164 C163.48834892 326.07837667 131.38747701 342.18045962 97.44775391 353.33618164 C96.56974121 353.6286377 95.69172852 353.92109375 94.78710938 354.22241211 C79.0285109 359.38203812 62.83878736 362.03467729 46.44775391 364.33618164 C45.49884277 364.47040527 44.54993164 364.60462891 43.57226562 364.74291992 C18.13239463 368.14351181 -9.14452815 367.75553807 -34.55224609 364.33618164 C-36.28002212 364.12711512 -38.00788978 363.91880479 -39.73583984 363.71118164 C-101.50299523 355.95474637 -163.68857636 326.22729501 -202.92724609 276.89868164 C-222.20018355 250.57866671 -236.00798624 220.18099137 -235.81298828 187.12133789 C-235.80229646 184.97130921 -235.81292684 182.82212214 -235.82568359 180.67211914 C-235.84661722 160.96198176 -231.61738405 142.27662272 -223.55224609 124.33618164 C-223.26365723 123.69181152 -222.97506836 123.04744141 -222.67773438 122.38354492 C-199.26358078 71.00916898 -149.9335959 36.69847227 -98.45458984 17.40991211 C-97.49681641 17.05558105 -96.53904297 16.70125 -95.55224609 16.33618164 C-94.74916016 16.03728027 -93.94607422 15.73837891 -93.11865234 15.43041992 C-82.42726451 11.53858564 -71.40360985 9.05224546 -60.30224609 6.64868164 C-59.64256836 6.50379303 -58.98289063 6.35890442 -58.30322266 6.20962524 C-38.9817318 2.00528951 -19.77847613 -0.1687807 0 0 Z M-38.55224609 55.33618164 C-39.38868652 55.51310547 -40.22512695 55.6900293 -41.08691406 55.87231445 C-46.96861967 57.15813947 -52.7685355 58.6662875 -58.55224609 60.33618164 C-59.29893555 60.55113281 -60.045625 60.76608398 -60.81494141 60.98754883 C-100.59514561 72.72683273 -139.30672864 97.39037364 -159.70263672 134.42504883 C-172.2643924 158.32758394 -175.70864206 186.23105455 -167.96630859 212.30981445 C-163.2992008 227.08178679 -155.80469161 240.71542134 -145.55224609 252.33618164 C-144.85486328 253.15344727 -144.15748047 253.97071289 -143.43896484 254.81274414 C-124.59202507 276.43818481 -100.15502949 291.19141145 -73.55224609 301.33618164 C-72.38306641 301.79508789 -71.21388672 302.25399414 -70.00927734 302.72680664 C-61.69623338 305.74973172 -53.18516737 307.64747905 -44.55224609 309.52368164 C-42.82566772 309.89904053 -42.82566772 309.89904053 -41.06420898 310.28198242 C-26.69104155 313.2911005 -12.90849171 314.66896544 1.73535156 314.59692383 C4.31290353 314.58622254 6.88975439 314.59687607 9.46728516 314.60961914 C60.98046596 314.65665696 112.10269248 296.86428338 149.67041016 261.10961914 C170.94197324 239.86797387 183.56443501 211.90189088 183.88525391 181.83618164 C183.66770494 150.5119929 168.10195514 124.1053926 146.54931641 102.37524414 C127.37137108 84.03797587 103.55323279 71.4763796 78.44775391 63.33618164 C77.65336914 63.07111816 76.85898437 62.80605469 76.04052734 62.53295898 C52.51571504 54.73678168 29.24675705 52.10261334 4.57275391 52.08618164 C3.66079254 52.0855069 2.74883118 52.08483215 1.80923462 52.08413696 C-11.83967257 52.10016789 -25.15542574 52.478267 -38.55224609 55.33618164 Z " fill="#EF5921" transform="translate(282.55224609375,22.663818359375)"/>
<path d="M0 0 C13.1167225 11.5284391 24.24799233 26.5438445 25.47265625 44.46875 C26.2338579 64.05268699 21.10214789 80.43023201 7.75 95.1875 C-13.03327384 117.22209494 -43.445594 129.96012429 -73.70947266 131.14526367 C-77.25313897 131.16560945 -80.79660743 131.18568321 -84.34033203 131.18530273 C-86.59817801 131.1874742 -88.85552237 131.20562625 -91.11328125 131.22460938 C-99.92534933 131.25934592 -108.32162743 130.70803444 -117 129 C-117.74685059 128.85393311 -118.49370117 128.70786621 -119.26318359 128.55737305 C-146.52278859 122.81691589 -173.69193913 108.54866983 -189.375 84.875 C-198.23335877 69.34507396 -201.8777846 53.27845973 -197.4375 35.75 C-189.44302633 11.46123451 -171.95063117 -3.90455521 -149.83081055 -15.27978516 C-142.39075769 -18.96783235 -135.00716878 -21.79662218 -127 -24 C-126.00226563 -24.29261719 -125.00453125 -24.58523437 -123.9765625 -24.88671875 C-82.66136707 -36.24009015 -33.03718008 -27.90210257 0 0 Z " fill="#FDFDFD" transform="translate(375,153)"/>
<path d="M0 0 C0.80824219 0.67546875 1.61648437 1.3509375 2.44921875 2.046875 C19.18435773 16.44382345 30.85569289 35.10009934 40 55 C40.54398438 56.18335938 41.08796875 57.36671875 41.6484375 58.5859375 C56.10312532 91.23738968 56.10312532 91.23738968 53 102 C52.26849731 101.25278687 52.26849731 101.25278687 51.5222168 100.49047852 C38.36456225 87.07502422 38.36456225 87.07502422 24 75 C23.02417969 74.21882813 22.04835937 73.43765625 21.04296875 72.6328125 C-14.21192441 44.55559525 -62.94163663 18.4124515 -109 21 C-109.33 21.99 -109.66 22.98 -110 24 C-108.76894531 24.39960938 -107.53789063 24.79921875 -106.26953125 25.2109375 C-65.58118687 38.79225097 -26.37540245 57.80557781 7.25634766 84.61035156 C8.80179139 85.84203257 10.35904921 87.05885762 11.91796875 88.2734375 C17.01367029 92.27099561 21.85823385 96.49284395 26.640625 100.859375 C28.6886696 102.71753467 30.7695697 104.52027421 32.875 106.3125 C36.54634654 109.51548546 40.03347953 112.89115088 43.5 116.3125 C44.04124512 116.84077393 44.58249023 117.36904785 45.14013672 117.91333008 C46.46669942 119.23668852 47.738514 120.61446788 49 122 C49 122.66 49 123.32 49 124 C40.77465707 124.07043175 32.54944627 124.12327253 24.32387352 124.15543652 C20.50177513 124.1708966 16.67988736 124.19175991 12.85791016 124.22631836 C-4.66142665 124.38041206 -21.69426038 124.13189777 -39 121 C-40.75449463 120.70959839 -40.75449463 120.70959839 -42.54443359 120.41333008 C-74.02732661 114.98744625 -103.48549435 103.74895463 -128 83 C-128.88429687 82.26265625 -129.76859375 81.5253125 -130.6796875 80.765625 C-142.30860356 70.68503488 -151.08196809 58.71148061 -158 45 C-158.47179687 44.06849121 -158.47179687 44.06849121 -158.953125 43.11816406 C-164.27014058 32.39152095 -170.96519221 17.21226587 -169 5 C-166.75390625 2.9453125 -166.75390625 2.9453125 -163.5625 1.125 C-162.98121338 0.79185791 -162.39992676 0.45871582 -161.80102539 0.11547852 C-159.88483467 -0.95971599 -157.94931471 -1.98618444 -156 -3 C-155.02885254 -3.50732666 -155.02885254 -3.50732666 -154.03808594 -4.02490234 C-106.32277264 -28.51688369 -43.38675099 -37.70258295 0 0 Z " fill="#8AC550" transform="translate(191,434)"/>
<path d="M0 0 C0.72026367 0.22107422 1.44052734 0.44214844 2.18261719 0.66992188 C18.92346089 5.89391454 36.69598518 12.70209242 51 23 C48.03500686 50.92403991 36.43519407 73.84604875 17 94 C16.35546875 94.70769531 15.7109375 95.41539062 15.046875 96.14453125 C0.14883701 112.04656745 -19.85814489 121.64190533 -40 129 C-40.75877441 129.28117676 -41.51754883 129.56235352 -42.29931641 129.85205078 C-71.008137 140.30137959 -102.93764982 143.27713161 -133.3125 143.25 C-134.40149094 143.24910873 -134.40149094 143.24910873 -135.51248169 143.24819946 C-143.15503431 143.22420213 -150.78679764 143.03485199 -158.41796875 142.609375 C-160.24557739 142.50834473 -160.24557739 142.50834473 -162.11010742 142.40527344 C-165 142 -165 142 -167 140 C-164.21758255 137.16721153 -161.42792287 134.34175719 -158.63208008 131.5222168 C-157.22827838 130.10370567 -155.82987502 128.67985854 -154.43164062 127.25585938 C-148.27045534 121.05113215 -141.8527538 115.42484607 -135 110 C-133.73361691 108.96344938 -132.46902773 107.92469935 -131.20703125 106.8828125 C-98.86916143 80.49664063 -61.92888054 61.59474664 -23.0625 46.8125 C-22.41973114 46.56780975 -21.77696228 46.32311951 -21.11471558 46.0710144 C-10.37761576 42 -10.37761576 42 -8 42 C-8.33 41.01 -8.66 40.02 -9 39 C-20.72526832 38.63358536 -31.58184921 39.13490948 -43 42 C-43.73347656 42.18272461 -44.46695313 42.36544922 -45.22265625 42.55371094 C-78.34662992 51.08691735 -110.26691344 67.72976156 -137 89 C-137.93070312 89.73863281 -138.86140625 90.47726562 -139.8203125 91.23828125 C-145.25155368 95.61807045 -150.49172521 100.17274211 -155.65234375 104.8671875 C-160.98741169 109.71402127 -166.44034755 114.41328673 -172 119 C-168.31486006 80.1524831 -145.82942346 41.95088331 -116.93359375 16.375 C-83.7688544 -10.47474903 -39.6018094 -12.41570241 0 0 Z " fill="#8AC550" transform="translate(504,416)"/>
<path d="M0 0 C1.36125 0.1848999 1.36125 0.1848999 2.75 0.37353516 C40.42819604 5.54736097 77.35119756 22.00849149 106 47 C106.79792969 47.67675781 107.59585937 48.35351562 108.41796875 49.05078125 C113.41384374 53.36045565 117.83907334 57.88353695 122 63 C123.15822266 64.40185547 123.15822266 64.40185547 124.33984375 65.83203125 C145.61520458 92.1392035 154.00652604 123.10233165 150.73193359 156.75488281 C148.33590702 174.12692272 140.93937135 190.66579468 131 205 C130.3090625 206.00675781 129.618125 207.01351562 128.90625 208.05078125 C117.79786201 223.32481474 103.8188671 236.70293435 88 247 C87.41750488 247.38414062 86.83500977 247.76828125 86.23486328 248.1640625 C64.8979466 262.06941801 40.90712531 271.88974498 16 277 C14.28123364 277.36450618 12.56248431 277.72909272 10.84375 278.09375 C9.08367282 278.45996872 7.32326036 278.82458016 5.5625 279.1875 C4.35605835 279.43826294 4.35605835 279.43826294 3.12524414 279.6940918 C-5.95154331 281.50795409 -14.94974048 282.15691277 -24.1953125 282.203125 C-25.60915474 282.21357849 -25.60915474 282.21357849 -27.05155945 282.22424316 C-30.07608556 282.24153852 -33.1004265 282.24796242 -36.125 282.25 C-37.15611908 282.25100708 -38.18723816 282.25201416 -39.24960327 282.25305176 C-54.37164108 282.24304467 -69.10758792 281.87608128 -84 279 C-84.71542969 278.87141602 -85.43085938 278.74283203 -86.16796875 278.61035156 C-117.67306724 272.80289204 -149.07588948 259.21585715 -174 239 C-174.55252441 238.55430664 -175.10504883 238.10861328 -175.67431641 237.64941406 C-202.70653914 215.68903016 -222.11044934 186.78871313 -226.6484375 151.75390625 C-229.72424354 118.91113283 -218.64532468 89.10163065 -197.85742188 63.87719727 C-175.66412392 37.46732533 -146.30362444 20.28781531 -114 9 C-112.88753906 8.60167969 -111.77507812 8.20335938 -110.62890625 7.79296875 C-75.08248527 -4.05583824 -36.76978583 -5.46332075 0 0 Z M-82 12 C-82.83644043 12.17692383 -83.67288086 12.35384766 -84.53466797 12.53613281 C-90.41637358 13.82195783 -96.21628941 15.33010586 -102 17 C-102.74668945 17.21495117 -103.49337891 17.42990234 -104.26269531 17.65136719 C-144.04289952 29.39065109 -182.75448255 54.054192 -203.15039062 91.08886719 C-215.71214631 114.9914023 -219.15639597 142.89487291 -211.4140625 168.97363281 C-206.74695471 183.74560515 -199.25244552 197.3792397 -189 209 C-188.30261719 209.81726563 -187.60523438 210.63453125 -186.88671875 211.4765625 C-168.03977897 233.10200317 -143.6027834 247.85522981 -117 258 C-115.83082031 258.45890625 -114.66164063 258.9178125 -113.45703125 259.390625 C-105.14398729 262.41355008 -96.63292128 264.3112974 -88 266.1875 C-86.27342163 266.56285889 -86.27342163 266.56285889 -84.51196289 266.94580078 C-70.13879545 269.95491886 -56.35624561 271.3327838 -41.71240234 271.26074219 C-39.13485037 271.2500409 -36.55799951 271.26069443 -33.98046875 271.2734375 C17.53271205 271.32047532 68.65493857 253.52810174 106.22265625 217.7734375 C127.49421933 196.53179223 140.1166811 168.56570924 140.4375 138.5 C140.21995103 107.17581126 124.65420124 80.76921096 103.1015625 59.0390625 C83.92361718 40.70179423 60.10547889 28.14019796 35 20 C34.20561523 19.73493652 33.41123047 19.46987305 32.59277344 19.19677734 C9.06796114 11.40060003 -14.20099685 8.7664317 -38.875 8.75 C-39.78696136 8.74932526 -40.69892273 8.74865051 -41.63851929 8.74795532 C-55.28742648 8.76398624 -68.60317965 9.14208536 -82 12 Z " fill="#050300" transform="translate(326,66)"/>
<path d="M0 0 C15.64526667 13.65102934 28.52561384 31.73201055 30.40429688 53.00585938 C30.50118936 55.36093998 30.52835278 57.70162433 30.51171875 60.05859375 C30.50434692 61.30684937 30.50434692 61.30684937 30.49682617 62.58032227 C30.37468161 69.00888453 29.51630943 74.65357462 27.19921875 80.68359375 C26.84730469 81.64265625 26.49539063 82.60171875 26.1328125 83.58984375 C16.07692783 109.34352859 -4.09654252 127.4569538 -29.02197266 138.68408203 C-66.30374815 154.67116258 -110.53151459 157.14232104 -148.80078125 142.68359375 C-165.57332766 135.88464196 -179.6786975 127.19968429 -192.80078125 114.68359375 C-193.71923828 113.87728516 -193.71923828 113.87728516 -194.65625 113.0546875 C-207.82166853 101.03408798 -216.09712168 81.92432316 -216.96484375 64.36328125 C-217.49880062 41.11188645 -209.14096213 22.6375259 -193.36865234 5.80224609 C-144.37735061 -44.71499017 -52.59896462 -43.50235149 0 0 Z M-156.80078125 -6.31640625 C-157.96609375 -5.74792969 -159.13140625 -5.17945313 -160.33203125 -4.59375 C-167.54223643 -0.8959929 -173.66957081 3.41011741 -179.80078125 8.68359375 C-180.81205078 9.46089844 -180.81205078 9.46089844 -181.84375 10.25390625 C-191.44387392 17.880352 -198.61631438 29.26986501 -202.80078125 40.68359375 C-203.11789063 41.51761719 -203.435 42.35164063 -203.76171875 43.2109375 C-209.06008593 59.37338784 -205.42462445 74.76972208 -198.3828125 89.6875 C-194.78613328 96.12525356 -189.87143709 101.37876908 -184.80078125 106.68359375 C-184.00607422 107.59044922 -184.00607422 107.59044922 -183.1953125 108.515625 C-165.925618 127.47233336 -135.78726776 137.91942388 -110.80078125 139.68359375 C-71.60570885 141.23374073 -34.74799045 135.50357796 -4.0234375 109.31640625 C7.64885494 98.34553046 17.86630139 82.1929472 18.5078125 65.82421875 C19.15161054 44.47492744 13.77245736 29.90260241 -0.94995117 14.01928711 C-11.59721681 3.03032263 -24.67417634 -4.65530013 -38.80078125 -10.31640625 C-39.80286621 -10.71835205 -39.80286621 -10.71835205 -40.82519531 -11.12841797 C-78.03790028 -25.62335265 -121.02735089 -23.90818091 -156.80078125 -6.31640625 Z " fill="#060603" transform="translate(381.80078125,144.31640625)"/>
<path d="M0 0 C18.81 0.495 18.81 0.495 38 1 C38 54.13 38 107.26 38 162 C31.49866088 164.16711304 26.6938005 165.19420555 19.875 165.1875 C19.11960937 165.18741943 18.36421875 165.18733887 17.5859375 165.18725586 C3.03936152 165.03936152 3.03936152 165.03936152 0 162 C-0.09685318 159.91172679 -0.12186882 157.82011638 -0.12025452 155.729599 C-0.12110894 155.06720909 -0.12196337 154.40481918 -0.12284368 153.72235686 C-0.12450033 151.4866713 -0.11897414 149.25105958 -0.11352539 147.01538086 C-0.11324353 145.41919456 -0.11340123 143.82300813 -0.1139679 142.2268219 C-0.11425592 137.87990105 -0.10835835 133.53300756 -0.10139394 129.18609309 C-0.09516128 124.64836053 -0.09455667 120.11062741 -0.09336853 115.57289124 C-0.09025495 106.9739216 -0.08204122 98.37496461 -0.07201904 89.77600056 C-0.06085872 79.98898272 -0.05534766 70.20196429 -0.05032361 60.41494167 C-0.03985862 40.27661914 -0.02151282 20.13831396 0 0 Z " fill="#89C450" transform="translate(269,411)"/>
<path d="M0 0 C6.24848026 3.70280312 7.80158151 8.36967021 9.52124023 15.01391602 C10.20681223 19.28991351 10.18303019 23.51534155 10.203125 27.83984375 C10.20882507 28.7983876 10.21452515 29.75693146 10.22039795 30.74452209 C10.22983188 32.77441308 10.23637554 34.80431927 10.24023438 36.83422852 C10.24986824 39.89562907 10.28087714 42.956337 10.3125 46.01757812 C10.4605628 73.37029916 10.4605628 73.37029916 3 85 C-0.34369847 87.97217642 -3.52584742 88.61808468 -8.01171875 88.3984375 C-11.62400818 87.67456025 -13.84756317 85.84223855 -16 83 C-22.17250395 71.85794016 -21.18649475 59.0211437 -21.18530273 46.66943359 C-21.18748918 44.13752416 -21.20570044 41.60605151 -21.22460938 39.07421875 C-21.31671252 12.90071994 -21.31671252 12.90071994 -13.72265625 3.40234375 C-9.6686033 -0.62924908 -5.36728209 -1.17349178 0 0 Z " fill="#030303" transform="translate(237,151)"/>
<path d="M0 0 C4.32675253 1.57336456 6.58890575 4.47060277 8.79370117 8.39013672 C13.60775796 18.80549131 13.50357805 30.602429 13.44604492 41.83984375 C13.43753231 44.36541376 13.46641872 46.88871376 13.49804688 49.4140625 C13.55484728 62.17501359 12.90479738 75.41260567 5 86 C2.03539149 88.32933526 -1.24655481 88.5040907 -4.9765625 88.3515625 C-7.6880383 87.88045667 -9.68352763 86.84810195 -11.68359375 84.95703125 C-14.66436885 80.52567124 -15.76084863 75.13453491 -17 70 C-17.17724609 69.31429932 -17.35449219 68.62859863 -17.53710938 67.92211914 C-18.2144986 63.64592102 -18.16274438 59.41304239 -18.16796875 55.08984375 C-18.17129715 54.12655655 -18.17462555 53.16326935 -18.17805481 52.17079163 C-18.18311076 50.13250199 -18.18546355 48.0942041 -18.18530273 46.0559082 C-18.18747521 42.97267563 -18.20560641 39.88980929 -18.22460938 36.80664062 C-18.3052164 9.26055222 -18.3052164 9.26055222 -12 2 C-7.93796577 -0.70802282 -4.76217706 -0.51323816 0 0 Z " fill="#030303" transform="translate(348,151)"/>
<path d="M0 0 C5.46325879 -0.36421725 5.46325879 -0.36421725 7.75 1.1875 C11.59743441 6.76627989 11.57909565 12.46182331 11 19 C10.41378926 22.04829587 9.79572767 23.33537185 8 26 C4.5 27.125 4.5 27.125 1 27 C-1.47601334 25.54854391 -1.9836394 24.03530445 -3.1875 21.4375 C-5.15037072 13.13304694 -4.33646014 7.31777648 0 0 Z " fill="#F4F4F4" transform="translate(341,158)"/>
<path d="M0 0 C2.9375 0.5625 2.9375 0.5625 4.75 1.8125 C8.46288377 7.28411819 7.4524472 15.2961003 6.9375 21.5625 C6.01211031 24.60835405 5.38351807 25.37395752 2.9375 27.5625 C-0.125 28.1875 -0.125 28.1875 -3.0625 27.5625 C-7.21396016 23.55419364 -7.25294122 18.6994176 -7.375 13.1875 C-7.30199386 5.97611594 -7.30199386 5.97611594 -5.4375 2.75 C-3.0625 0.5625 -3.0625 0.5625 0 0 Z " fill="#F9F9F9" transform="translate(232.0625,157.4375)"/>
</svg>
